#tb 0: 1/25
0,          0,          0,        1,   599040, 0xda0cb5d4
0,          2,          2,        1,   599040, 0x352bc397
0,          3,          3,        1,   599040, 0x72bc28fe
0,          4,          4,        1,   599040, 0x22294f68
0,          5,          5,        1,   599040, 0x1f6415a7
0,          6,          6,        1,   599040, 0xa9f6b0d7
0,          7,          7,        1,   599040, 0x6b7c1f2d
0,          8,          8,        1,   599040, 0xb93857f5
0,          9,          9,        1,   599040, 0xb0d752d3
0,         10,         10,        1,   599040, 0x0622e689
0,         11,         11,        1,   599040, 0x23d8780a
0,         12,         12,        1,   599040, 0x4844581b
0,         13,         13,        1,   599040, 0x791322f9
0,         14,         14,        1,   599040, 0x82f6cf43
0,         15,         15,        1,   599040, 0xcace3aba
0,         16,         16,        1,   599040, 0x68a68427
0,         17,         17,        1,   599040, 0x23fa500a
0,         18,         18,        1,   599040, 0x7d78b77d
0,         19,         19,        1,   599040, 0x8d295032
0,         20,         20,        1,   599040, 0x16fa266c
0,         21,         21,        1,   599040, 0x37d8173b
0,         22,         22,        1,   599040, 0x8a4f90e1
0,         23,         23,        1,   599040, 0x40f98f6d
0,         24,         24,        1,   599040, 0xc060b193
0,         25,         25,        1,   599040, 0xa53c3bc1
0,         26,         26,        1,   599040, 0x5a9556d6
0,         27,         27,        1,   599040, 0x37582393
0,         28,         28,        1,   599040, 0x376acd14
0,         29,         29,        1,   599040, 0x81ee1e64
0,         30,         30,        1,   599040, 0xff2a600c
